HIERARCHY
ROOT joint_Root
{
	OFFSET 0.0 0.0 0.0
	CHANNELS 6 Xposition Yposition Zposition Zrotation Xrotation Yrotation 
	JOINT Hips
	{
		OFFSET -0.726466 93.3139 -2.00062
		CHANNELS 6 Xposition Yposition Zposition Zrotation Xrotation Yrotation 
		JOINT Spine
		{
			OFFSET 15.7357 0.0 0.0
			CHANNELS 6 Xposition Yposition Zposition Zrotation Xrotation Yrotation 
			JOINT Chest
			{
				OFFSET 8.98455 -0.406207 0.0
				CHANNELS 6 Xposition Yposition Zposition Zrotation Xrotation Yrotation 
				JOINT Neck
				{
					OFFSET 16.3773 0.0 0.0
					CHANNELS 6 Xposition Yposition Zposition Zrotation Xrotation Yrotation 
					JOINT Head
					{
						OFFSET 6.45672 0.0 0.0
						CHANNELS 6 Xposition Yposition Zposition Zrotation Xrotation Yrotation 
						End Site
						{
							OFFSET 0.0 0.0 0.0
						}
					}
				}
				JOINT Shoulder_L
				{
					OFFSET 12.9942 -0.242716 4.98039
					CHANNELS 6 Xposition Yposition Zposition Zrotation Xrotation Yrotation 
					JOINT UpperArm_L
					{
						OFFSET 5.34809 0.0 0.0
						CHANNELS 6 Xposition Yposition Zposition Zrotation Xrotation Yrotation 
						JOINT LowerArm_L
						{
							OFFSET 24.3286 1.87007e-05 0.0
							CHANNELS 6 Xposition Yposition Zposition Zrotation Xrotation Yrotation 
							JOINT Hand_L
							{
								OFFSET 22.2916 0.0 0.0
								CHANNELS 6 Xposition Yposition Zposition Zrotation Xrotation Yrotation 
								End Site
								{
									OFFSET 0.0 0.0 0.0
								}
							}
						}
					}
				}
				JOINT Shoulder_R
				{
					OFFSET 12.9945 -0.242716 -4.98039
					CHANNELS 6 Xposition Yposition Zposition Zrotation Xrotation Yrotation 
					JOINT UpperArm_R
					{
						OFFSET -5.34813 0.0 0.0
						CHANNELS 6 Xposition Yposition Zposition Zrotation Xrotation Yrotation 
						JOINT LowerArm_R
						{
							OFFSET -24.3289 0.000322201 0.0
							CHANNELS 6 Xposition Yposition Zposition Zrotation Xrotation Yrotation 
							JOINT Hand_R
							{
								OFFSET -22.2915 -0.000108084 0.0
								CHANNELS 6 Xposition Yposition Zposition Zrotation Xrotation Yrotation 
								End Site
								{
									OFFSET 0.0 0.0 0.0
								}
							}
						}
					}
				}
			}
		}
		JOINT UpperLeg_L
		{
			OFFSET -2.19248 -6.46944 0.0
			CHANNELS 6 Xposition Yposition Zposition Zrotation Xrotation Yrotation 
			JOINT LowerLeg_L
			{
				OFFSET 39.0811 0.0 -1.23785e-05
				CHANNELS 6 Xposition Yposition Zposition Zrotation Xrotation Yrotation 
				JOINT Foot_L
				{
					OFFSET 40.9854 0.0 -1.26872e-05
					CHANNELS 6 Xposition Yposition Zposition Zrotation Xrotation Yrotation 
					JOINT Toes_L
					{
						OFFSET 11.7543 0.0 0.0
						CHANNELS 6 Xposition Yposition Zposition Zrotation Xrotation Yrotation 
						End Site
						{
							OFFSET 0.0 0.0 0.0
						}
					}
				}
			}
		}
		JOINT UpperLeg_R
		{
			OFFSET -2.19251 6.46944 0.0
			CHANNELS 6 Xposition Yposition Zposition Zrotation Xrotation Yrotation 
			JOINT LowerLeg_R
			{
				OFFSET -39.0811 -0.00228153 -0.0401928
				CHANNELS 6 Xposition Yposition Zposition Zrotation Xrotation Yrotation 
				JOINT Foot_R
				{
					OFFSET -40.9854 0.0 0.0
					CHANNELS 6 Xposition Yposition Zposition Zrotation Xrotation Yrotation 
					JOINT Toes_R
					{
						OFFSET -11.7543 0.0 0.0
						CHANNELS 6 Xposition Yposition Zposition Zrotation Xrotation Yrotation 
						End Site
						{
							OFFSET 0.0 0.0 0.0
						}
					}
				}
			}
		}
	}
}
MOTION
Frames:	9
Frame Time:	0.0333333
0.000000 0.000000 0.000000 0.000000 0.000000 -0.000000 -0.535339 83.592800 432.787000 -89.175000 7.922590 172.124000 15.735700 0.000005 -0.000001 109.290000 79.929100 -109.311000 8.984550 -0.406207 -0.000000 11.300800 6.601320 -0.694630 16.377300 -0.000001 -0.000001 4.369120 -1.446240 0.928588 6.456720 -0.000001 -0.000000 -0.963823 -4.498440 2.476730 12.994200 -0.242716 4.980390 -88.198700 -3.810340 -64.675200 5.348090 -0.000007 -0.000001 -65.318500 35.259400 13.937700 24.328600 0.000019 0.000005 -0.367171 -0.362478 -45.369500 22.291600 -0.000001 0.000005 -7.511110 5.613850 -12.207000 12.994500 -0.242716 -4.980390 89.445200 1.376530 -68.048500 -5.348130 -0.000001 -0.000004 -39.712500 19.409000 -43.573300 -24.328900 0.000322 -0.000009 -11.892500 -1.654320 -82.189900 -22.291500 -0.000108 -0.000004 2.815500 5.559020 -9.136380 -2.192480 -6.469440 -0.000000 177.419000 -8.628520 -48.614700 39.081100 -0.000007 -0.000012 -0.105669 -0.023616 102.603000 40.985400 -0.000006 -0.000013 5.174710 -1.465160 -57.547800 11.754300 -0.000000 0.000003 -0.004476 -0.056315 -18.867800 -2.192510 6.469440 -0.000001 178.047000 11.501400 171.836000 -39.081100 -0.002282 -0.040193 0.019104 -0.015322 45.956900 -40.985400 0.000008 0.000006 3.594400 1.887350 -83.539800 -11.754300 -0.000006 -0.000006 -1.044700 -1.098990 -28.501200
0.000000 0.000000 0.000000 0.000000 0.000000 -0.000000 -1.280170 86.881700 425.948000 -90.845200 8.871290 171.021000 15.735700 0.000005 -0.000001 113.556000 80.177500 -114.557000 8.984550 -0.406207 -0.000000 10.381500 7.775970 -2.711670 16.377300 -0.000001 -0.000001 4.945950 -1.557320 0.992960 6.456720 -0.000001 -0.000000 -0.489890 -5.771300 3.306840 12.994200 -0.242716 4.980390 -87.493000 -5.096820 -63.765200 5.348090 -0.000007 -0.000001 -65.386200 33.626700 17.413600 24.328600 0.000019 0.000005 -0.482330 -0.448384 -47.084700 22.291600 -0.000001 0.000005 -7.697660 5.607500 -11.800600 12.994500 -0.242716 -4.980390 89.963800 0.090111 -68.165500 -5.348130 -0.000001 -0.000004 -38.274700 19.144500 -44.081500 -24.328900 0.000322 -0.000009 -13.009300 -1.141780 -85.069800 -22.291500 -0.000108 -0.000004 0.960016 5.546350 -8.534280 -2.192480 -6.469440 -0.000000 174.295000 -8.005950 -49.670300 39.081100 -0.000007 -0.000012 -0.039683 0.001686 87.579400 40.985400 -0.000006 -0.000013 5.190710 -4.082110 -61.236100 11.754300 -0.000000 0.000003 -0.005508 -0.066310 -19.275200 -2.192510 6.469440 -0.000001 174.375000 10.976200 177.027000 -39.081100 -0.002282 -0.040193 0.022986 -0.025490 37.701700 -40.985400 0.000008 0.000006 3.119050 3.885400 -68.734500 -11.754300 -0.000006 -0.000006 -0.142558 -0.539829 -39.358600
0.000000 0.000000 0.000000 0.000000 0.000000 -0.000000 -1.922730 90.105400 419.265000 -91.103100 9.865790 169.736000 15.735700 0.000005 -0.000001 116.721000 80.405700 -118.287000 8.984550 -0.406207 -0.000000 9.571840 8.554070 -3.850710 16.377300 -0.000001 -0.000001 5.453270 -1.095580 0.784041 6.456720 -0.000001 -0.000000 -0.396666 -6.278600 4.093820 12.994200 -0.242716 4.980390 -86.769900 -6.304270 -62.799500 5.348090 -0.000007 -0.000001 -65.808700 32.851500 19.793800 24.328600 0.000019 0.000005 -1.385580 -1.199350 -49.120600 22.291600 -0.000001 0.000005 -6.898450 5.618420 -12.511400 12.994500 -0.242716 -4.980390 90.274900 -0.716727 -69.012300 -5.348130 -0.000001 -0.000004 -37.557300 20.075700 -43.656200 -24.328900 0.000322 -0.000009 -12.307700 -0.925570 -85.763900 -22.291500 -0.000108 -0.000004 -0.021484 5.534290 -7.983980 -2.192480 -6.469440 -0.000000 173.273000 -8.091530 -47.894500 39.081100 -0.000007 -0.000012 0.019389 -0.007704 68.314800 40.985400 -0.000006 -0.000013 5.339200 -5.386270 -64.402700 11.754300 -0.000000 0.000003 -0.005573 -0.066917 -19.299900 -2.192510 6.469440 -0.000001 171.717000 12.931300 -179.975000 -39.081100 -0.002282 -0.040193 0.056049 -0.087218 31.165800 -40.985400 0.000008 0.000006 2.574020 8.445970 -50.639400 -11.754300 -0.000006 -0.000006 -0.237466 -0.703991 -47.052400
0.000000 0.000000 0.000000 0.000000 0.000000 -0.000000 -2.246160 92.215100 412.386000 -89.485900 9.804190 169.735000 15.735700 0.000005 -0.000001 118.252000 80.206600 -119.567000 8.984550 -0.406207 -0.000000 9.687300 9.195230 -3.412790 16.377300 -0.000001 -0.000001 6.022480 -0.886173 0.451537 6.456720 -0.000001 -0.000000 -0.945414 -6.520380 4.793400 12.994200 -0.242716 4.980390 -86.128700 -7.463100 -62.481400 5.348090 -0.000007 -0.000001 -66.248100 32.083300 20.917000 24.328600 0.000019 0.000005 -2.265590 -1.810960 -51.382700 22.291600 -0.000001 0.000005 -6.517580 5.620650 -12.664300 12.994500 -0.242716 -4.980390 90.423100 -1.148740 -69.777900 -5.348130 -0.000001 -0.000004 -37.307000 21.649100 -42.443600 -24.328900 0.000322 -0.000009 -12.342500 -1.082490 -85.063900 -22.291500 -0.000108 -0.000004 0.091110 5.534250 -7.983120 -2.192480 -6.469440 -0.000000 175.298000 -8.058590 -42.600000 39.081100 -0.000007 -0.000012 0.029901 -0.027281 47.620200 40.985400 -0.000006 -0.000013 4.254870 -2.198780 -66.360400 11.754300 -0.000000 0.000003 -0.005043 -0.061892 -19.095000 -2.192510 6.469440 -0.000001 170.611000 14.374700 -176.633000 -39.081100 -0.002282 -0.040193 0.102519 -0.193104 27.192900 -40.985400 0.000008 0.000006 -2.006370 11.902100 -35.331000 -11.754300 -0.000006 -0.000006 -0.122830 -0.497995 -37.483400
0.000000 0.000000 0.000000 0.000000 0.000000 -0.000000 -2.275810 92.675700 404.970000 -87.182600 9.560890 170.810000 15.735700 0.000005 -0.000001 118.533000 79.797800 -119.235000 8.984550 -0.406207 -0.000000 10.328300 9.666590 -2.281770 16.377300 -0.000001 -0.000001 6.289230 -0.613237 0.122301 6.456720 -0.000001 -0.000000 -1.262900 -6.474790 5.231330 12.994200 -0.242716 4.980390 -85.577700 -8.350930 -61.964900 5.348090 -0.000007 -0.000001 -66.046100 31.710600 20.726000 24.328600 0.000019 0.000005 -2.232070 -1.640120 -53.710300 22.291600 -0.000001 0.000005 -6.070840 5.620760 -12.672000 12.994500 -0.242716 -4.980390 90.610200 -1.726000 -70.524900 -5.348130 -0.000001 -0.000004 -37.912600 23.966800 -40.587200 -24.328900 0.000322 -0.000009 -12.621200 -1.510600 -83.282700 -22.291500 -0.000108 -0.000004 0.636422 5.543810 -8.417510 -2.192480 -6.469440 -0.000000 178.466000 -8.075590 -36.090000 39.081100 -0.000007 -0.000012 0.010044 -0.017507 29.841000 40.985400 -0.000006 -0.000013 2.020960 0.316427 -68.409300 11.754300 -0.000000 0.000003 -0.004873 -0.060236 -19.027600 -2.192510 6.469440 -0.000001 170.419000 13.703900 -172.885000 -39.081100 -0.002282 -0.040193 0.136212 -0.265943 26.553500 -40.985400 0.000008 0.000006 -6.807900 10.080300 -26.563200 -11.754300 -0.000006 -0.000006 -0.025122 -0.194166 -24.517100
0.000000 0.000000 0.000000 0.000000 0.000000 -0.000000 -2.333400 91.872200 397.299000 -85.740300 9.838190 171.283000 15.735700 0.000005 -0.000001 119.227000 79.639300 -119.653000 8.984550 -0.406207 -0.000000 10.473200 10.039400 -1.775260 16.377300 -0.000001 -0.000001 6.475610 -0.378828 0.119422 6.456720 -0.000001 -0.000000 -1.476550 -6.354140 5.508150 12.994200 -0.242716 4.980390 -85.288100 -8.898960 -61.950000 5.348090 -0.000007 -0.000001 -65.426600 30.432300 19.537600 24.328600 0.000019 0.000005 -2.236560 -1.546220 -55.359800 22.291600 -0.000001 0.000005 -5.400560 5.619260 -12.568600 12.994500 -0.242716 -4.980390 90.651100 -1.879140 -70.886100 -5.348130 -0.000001 -0.000004 -39.121400 26.729500 -38.348800 -24.328900 0.000322 -0.000009 -11.726600 -2.046910 -80.233700 -22.291500 -0.000108 -0.000004 0.910861 5.558400 -9.108580 -2.192480 -6.469440 -0.000000 -179.668000 -8.674010 -32.911200 39.081100 -0.000007 -0.000012 -0.000545 0.001416 21.046700 40.985400 -0.000006 -0.000013 0.234657 -0.756198 -69.390800 11.754300 -0.000000 0.000003 -0.005069 -0.062137 -19.105000 -2.192510 6.469440 -0.000001 169.999000 11.567900 -171.131000 -39.081100 -0.002282 -0.040193 0.146155 -0.239267 30.839400 -40.985400 0.000008 0.000006 -7.092640 6.937760 -29.311300 -11.754300 -0.000006 -0.000006 -0.026265 -0.199807 -24.750400
0.000000 0.000000 0.000000 0.000000 0.000000 -0.000000 -2.616360 90.116400 389.610000 -85.648800 10.339000 171.274000 15.735700 0.000005 -0.000001 118.466000 79.726600 -119.083000 8.984550 -0.406207 -0.000000 10.460100 9.712970 -2.125880 16.377300 -0.000001 -0.000001 6.429920 -0.034141 0.120801 6.456720 -0.000001 -0.000000 -1.814400 -5.743170 5.703890 12.994200 -0.242716 4.980390 -85.487300 -8.676860 -62.383700 5.348090 -0.000007 -0.000001 -64.475300 27.496600 17.357800 24.328600 0.000019 0.000005 -1.756420 -1.182790 -56.054400 22.291600 -0.000001 0.000005 -4.503200 5.611650 -12.063800 12.994500 -0.242716 -4.980390 90.517700 -1.508040 -71.050500 -5.348130 -0.000001 -0.000004 -41.263900 29.333900 -35.883000 -24.328900 0.000322 -0.000009 -10.299100 -2.632210 -75.810500 -22.291500 -0.000108 -0.000004 1.027870 5.558000 -9.089170 -2.192480 -6.469440 -0.000000 179.572000 -9.802100 -37.162200 39.081100 -0.000007 -0.000012 0.292616 -0.535833 28.639300 40.985400 -0.000006 -0.000013 3.434390 -6.936770 -67.709600 11.754300 -0.000000 0.000003 -0.005560 -0.066790 -19.294700 -2.192510 6.469440 -0.000001 170.348000 6.248330 -171.418000 -39.081100 -0.002282 -0.040193 0.154922 -0.195268 37.831700 -40.985400 0.000008 0.000006 -3.386010 2.979300 -35.078000 -11.754300 -0.000006 -0.000006 -0.028033 -0.208301 -25.102100
0.000000 0.000000 0.000000 0.000000 0.000000 -0.000000 -3.088000 87.746700 382.053000 -87.596500 10.060100 171.217000 15.735700 0.000005 -0.000001 113.646000 80.087600 -115.113000 8.984550 -0.406207 -0.000000 10.570600 7.861150 -3.663880 16.377300 -0.000001 -0.000001 6.486260 0.451180 0.450586 6.456720 -0.000001 -0.000000 -3.179400 -4.512030 5.907390 12.994200 -0.242716 4.980390 -86.337300 -7.275100 -63.183700 5.348090 -0.000007 -0.000001 -62.251500 23.883600 14.019900 24.328600 0.000019 0.000005 -1.485400 -0.980297 -56.583800 22.291600 -0.000001 0.000005 -3.678330 5.609980 -11.957500 12.994500 -0.242716 -4.980390 90.063600 -0.187737 -71.272400 -5.348130 -0.000001 -0.000004 -43.880200 31.478100 -32.747100 -24.328900 0.000322 -0.000009 -7.940990 -2.904570 -70.025500 -22.291500 -0.000108 -0.000004 1.548890 5.573000 -9.842340 -2.192480 -6.469440 -0.000000 176.925000 -10.285800 -41.155300 39.081100 -0.000007 -0.000012 0.168760 -0.200588 40.074500 40.985400 -0.000006 -0.000013 3.434070 -8.677800 -58.506800 11.754300 -0.000000 0.000003 -0.004681 -0.058358 -18.951000 -2.192510 6.469440 -0.000001 169.200000 2.802260 -174.119000 -39.081100 -0.002282 -0.040193 0.194744 -0.173454 47.829300 -40.985400 0.000008 0.000006 1.368860 -1.850870 -35.948500 -11.754300 -0.000006 -0.000006 -0.027793 -0.207162 -25.054900
0.000000 0.000000 0.000000 0.000000 0.000000 -0.000000 -3.489400 84.787100 374.339000 -89.081700 8.641910 172.575000 15.735700 0.000005 -0.000001 106.608000 79.881800 -108.545000 8.984550 -0.406207 -0.000000 11.767900 5.668130 -4.461160 16.377300 -0.000001 -0.000001 4.612790 0.249049 0.791526 6.456720 -0.000001 -0.000000 -3.048460 -3.525480 6.271920 12.994200 -0.242716 4.980390 -87.646300 -4.810240 -63.889300 5.348090 -0.000007 -0.000001 -57.889800 22.665500 7.617220 24.328600 0.000019 0.000005 -3.702040 -2.435080 -56.710800 22.291600 -0.000001 0.000005 -2.763900 5.616500 -12.377800 12.994500 -0.242716 -4.980390 89.698700 0.869281 -70.883000 -5.348130 -0.000001 -0.000004 -48.205700 32.452200 -27.625000 -24.328900 0.000322 -0.000009 -5.593910 -2.741250 -63.965600 -22.291500 -0.000108 -0.000004 2.599800 5.587070 -10.591100 -2.192480 -6.469440 -0.000000 175.913000 -7.542830 -41.574500 39.081100 -0.000007 -0.000012 -0.330047 0.239227 54.065200 40.985400 -0.000006 -0.000013 1.887290 -9.083760 -70.840700 11.754300 -0.000000 0.000003 -0.000001 -0.000017 -16.578200 -2.192510 6.469440 -0.000001 168.395000 1.576070 -177.924000 -39.081100 -0.002282 -0.040193 0.220435 -0.116736 61.749000 -40.985400 0.000008 0.000006 3.228640 -4.107600 -36.622700 -11.754300 -0.000006 -0.000006 -0.027286 -0.204746 -24.954900
